<svg width="0" height="0" class="hidden">
  <symbol xmlns="http://www.w3.org/2000/svg" viewBox="0 0 512 512" id="down">
    <path fill="none" stroke="currentColor" stroke-linecap="round" stroke-linejoin="round" stroke-width="48" d="M112 184l144 144 144-144"></path>
  </symbol>
  <symbol xmlns="http://www.w3.org/2000/svg" viewBox="0 0 512 512" id="ban-outline">
    <circle cx="256" cy="256" r="208" fill="none" stroke="#b91c1c" stroke-miterlimit="10" stroke-width="32"></circle>
    <path fill="none" stroke="#b91c1c" stroke-miterlimit="10" stroke-width="32" d="M108.92 108.92l294.16 294.16"></path>
  </symbol>
  <symbol fill="none" xmlns="http://www.w3.org/2000/svg" viewBox="0 0 24 24" id="loader">
    <path d="M12 3L12 6" stroke="#7c3aed" stroke-width="2" stroke-linecap="round" stroke-linejoin="round"></path>
    <path d="M21 12L18 12" stroke="#7c3aed" stroke-width="2" stroke-linecap="round" stroke-linejoin="round"></path>
    <path d="M12 21L12 18" stroke="#7c3aed" stroke-width="2" stroke-linecap="round" stroke-linejoin="round"></path>
    <path d="M3 12L6 12" stroke="#7c3aed" stroke-width="2" stroke-linecap="round" stroke-linejoin="round"></path>
    <path d="M5.63586 5.63605L7.75718 7.75737" stroke="#7c3aed" stroke-width="2" stroke-linecap="round" stroke-linejoin="round"></path>
    <path d="M18.3639 5.63605L16.2426 7.75737" stroke="#7c3aed" stroke-width="2" stroke-linecap="round" stroke-linejoin="round"></path>
    <path d="M18.3641 18.3639L16.2428 16.2426" stroke="#7c3aed" stroke-width="2" stroke-linecap="round" stroke-linejoin="round"></path>
    <path d="M5.63623 18.3639L7.75755 16.2426" stroke="#7c3aed" stroke-width="2" stroke-linecap="round" stroke-linejoin="round"></path>
  </symbol>
  <symbol xmlns="http://www.w3.org/2000/svg" viewBox="0 0 512 512" id="eye">
    <circle cx="256" cy="256" r="64"></circle>
    <path d="M490.84 238.6c-26.46-40.92-60.79-75.68-99.27-100.53C349 110.55 302 96 255.66 96c-42.52 0-84.33 12.15-124.27 36.11-40.73 24.43-77.63 60.12-109.68 106.07a31.92 31.92 0 00-.64 35.54c26.41 41.33 60.4 76.14 98.28 100.65C162 402 207.9 416 255.66 416c46.71 0 93.81-14.43 136.2-41.72 38.46-24.77 72.72-59.66 99.08-100.92a32.2 32.2 0 00-.1-34.76zM256 352a96 96 0 1196-96 96.11 96.11 0 01-96 96z"></path>
  </symbol>
  <symbol xmlns="http://www.w3.org/2000/svg" viewBox="0 0 512 512" id="film">
    <path d="M436 80H76a44.05 44.05 0 00-44 44v264a44.05 44.05 0 0044 44h360a44.05 44.05 0 0044-44V124a44.05 44.05 0 00-44-44zM112 388a12 12 0 01-12 12H76a12 12 0 01-12-12v-24a12 12 0 0112-12h24a12 12 0 0112 12zm0-80a12 12 0 01-12 12H76a12 12 0 01-12-12v-24a12 12 0 0112-12h24a12 12 0 0112 12zm0-80a12 12 0 01-12 12H76a12 12 0 01-12-12v-24a12 12 0 0112-12h24a12 12 0 0112 12zm0-80a12 12 0 01-12 12H76a12 12 0 01-12-12v-24a12 12 0 0112-12h24a12 12 0 0112 12zm241.68 124H158.32a16 16 0 010-32h195.36a16 16 0 110 32zM448 388a12 12 0 01-12 12h-24a12 12 0 01-12-12v-24a12 12 0 0112-12h24a12 12 0 0112 12zm0-80a12 12 0 01-12 12h-24a12 12 0 01-12-12v-24a12 12 0 0112-12h24a12 12 0 0112 12zm0-80a12 12 0 01-12 12h-24a12 12 0 01-12-12v-24a12 12 0 0112-12h24a12 12 0 0112 12zm0-80a12 12 0 01-12 12h-24a12 12 0 01-12-12v-24a12 12 0 0112-12h24a12 12 0 0112 12z"></path>
  </symbol>
  <symbol xmlns="http://www.w3.org/2000/svg" viewBox="0 0 512 512" id="person">
    <path d="M332.64 64.58C313.18 43.57 286 32 256 32c-30.16 0-57.43 11.5-76.8 32.38-19.58 21.11-29.12 49.8-26.88 80.78C156.76 206.28 203.27 256 256 256s99.16-49.71 103.67-110.82c2.27-30.7-7.33-59.33-27.03-80.6zM432 480H80a31 31 0 01-24.2-11.13c-6.5-7.77-9.12-18.38-7.18-29.11C57.06 392.94 83.4 353.61 124.8 326c36.78-24.51 83.37-38 131.2-38s94.42 13.5 131.2 38c41.4 27.6 67.74 66.93 76.18 113.75 1.94 10.73-.68 21.34-7.18 29.11A31 31 0 01432 480z"></path>
  </symbol>
  <symbol xmlns="http://www.w3.org/2000/svg" viewBox="0 0 512 512" id="arrow-forward">
    <path fill="none" stroke="currentColor" stroke-linecap="round" stroke-linejoin="round" stroke-width="48" d="M268 112l144 144-144 144M392 256H100"></path>
  </symbol>
  <symbol xmlns="http://www.w3.org/2000/svg" viewBox="0 0 512 512" id="arrow-back">
    <path fill="none" stroke="currentColor" stroke-linecap="round" stroke-linejoin="round" stroke-width="48" d="M244 400L100 256l144-144M120 256h292"></path>
  </symbol>
  <symbol xmlns="http://www.w3.org/2000/svg" viewBox="0 0 512 512" id="star">
    <path d="M394 480a16 16 0 01-9.39-3L256 383.76 127.39 477a16 16 0 01-24.55-18.08L153 310.35 23 221.2a16 16 0 019-29.2h160.38l48.4-148.95a16 16 0 0130.44 0l48.4 149H480a16 16 0 019.05 29.2L359 310.35l50.13 148.53A16 16 0 01394 480z"></path>
  </symbol>
  <symbol xmlns="http://www.w3.org/2000/svg" viewBox="0 0 512 512" id="bookmark-outline">
    <path d="M352 48H160a48 48 0 00-48 48v368l144-128 144 128V96a48 48 0 00-48-48z" fill="none" stroke="currentColor" stroke-linecap="round" stroke-linejoin="round" stroke-width="32"></path>
  </symbol>
  <symbol xmlns="http://www.w3.org/2000/svg" viewBox="0 0 512 512" id="bookmark">
    <path d="M400 480a16 16 0 01-10.63-4L256 357.41 122.63 476A16 16 0 0196 464V96a64.07 64.07 0 0164-64h192a64.07 64.07 0 0164 64v368a16 16 0 01-16 16z"></path>
  </symbol>
  <symbol xmlns="http://www.w3.org/2000/svg" viewBox="0 0 512 512" id="chevron-thin-right">
      <view id="triangle" viewBox="0 0 32 32"/>
    <path d="M13.25 10l-7.141-7.42c-0.268-0.27-0.268-0.707 0-0.979 0.268-0.27 0.701-0.27 0.969 0l7.83 7.908c0.268 0.271 0.    268 0.709 0 0.979l-7.83 7.908c-0.268 0.271-0.701 0.27-0.969 0s-0.268-0.707 0-0.979l7.141-7.417z"/>
  </symbol>
  <symbol xmlns="http://www.w3.org/2000/svg" viewBox="0 0 512 512" id="bookmarks">
    <path d="M400 0H176a64.11 64.11 0 00-62 48h228a74 74 0 0174 74v304.89l22 17.6a16 16 0 0019.34.5 16.41 16.41 0 006.66-13.42V64a64 64 0 00-64-64z"></path>
    <path d="M320 80H112a64 64 0 00-64 64v351.62A16.36 16.36 0 0054.6 509a16 16 0 0019.71-.71L216 388.92l141.69 119.32a16 16 0 0019.6.79 16.4 16.4 0 006.71-13.44V144a64 64 0 00-64-64z"></path>
  </symbol>
  <symbol xmlns="http://www.w3.org/2000/svg" viewBox="0 0 512 512" id="search-outline">
    <path d="M221.09 64a157.09 157.09 0 10157.09 157.09A157.1 157.1 0 00221.09 64z" fill="none" stroke="currentColor" stroke-miterlimit="10" stroke-width="32"></path>
    <path fill="none" stroke="currentColor" stroke-linecap="round" stroke-miterlimit="10" stroke-width="32" d="M338.29 338.29L448 448"></path>
  </symbol>
  <symbol xmlns="http://www.w3.org/2000/svg" id="icon-alert-triangle" viewBox="0 0 24 24">
<path d="M11.148 4.374c0.073-0.123 0.185-0.242 0.334-0.332 0.236-0.143 0.506-0.178 0.756-0.116s0.474 0.216 0.614 0.448l8.466 14.133c0.070 0.12 0.119 0.268 0.128 0.434-0.015 0.368-0.119 0.591-0.283 0.759-0.18 0.184-0.427 0.298-0.693 0.301l-16.937-0.001c-0.152-0.001-0.321-0.041-0.481-0.134-0.239-0.138-0.399-0.359-0.466-0.607s-0.038-0.519 0.092-0.745zM9.432 3.346l-8.47 14.14c-0.422 0.731-0.506 1.55-0.308 2.29s0.68 1.408 1.398 1.822c0.464 0.268 0.976 0.4 1.475 0.402h16.943c0.839-0.009 1.587-0.354 2.123-0.902s0.864-1.303 0.855-2.131c-0.006-0.536-0.153-1.044-0.406-1.474l-8.474-14.147c-0.432-0.713-1.11-1.181-1.854-1.363s-1.561-0.081-2.269 0.349c-0.429 0.26-0.775 0.615-1.012 1.014zM11 9v4c0 0.552 0.448 1 1 1s1-0.448 1-1v-4c0-0.552-0.448-1-1-1s-1 0.448-1 1zM12 18c0.552 0 1-0.448 1-1s-0.448-1-1-1-1 0.448-1 1 0.448 1 1 1z"/>
</symbol>
</svg>